<?xml version="1.0" encoding="UTF-8" standalone="no"?>
<!DOCTYPE svg PUBLIC "-//W3C//DTD SVG 1.1//EN" "http://www.w3.org/Graphics/SVG/1.1/DTD/svg11.dtd">
<svg width="671" height="142" viewBox="0 0 671 142" version="1.1" xmlns="http://www.w3.org/2000/svg" xmlns:xlink="http://www.w3.org/1999/xlink" xml:space="preserve" xmlns:serif="http://www.serif.com/" style="fill-rule:evenodd;clip-rule:evenodd;stroke-linejoin:round;stroke-miterlimit:2;">
    <g transform="matrix(1,0,0,1,-465,-316)">
        <g id="logo" transform="matrix(1,0,0,1,93.4661,-54.75)">
            <g transform="matrix(1,0,0,1,-93.4661,54.75)">
                <path d="M847.5,361.75L847.5,393.733C847.5,399.813 842.563,404.75 836.483,404.75C830.403,404.75 825.466,399.813 825.466,393.733L825.466,361.75C825.466,357.335 821.881,353.75 817.466,353.75C813.051,353.75 809.466,357.335 809.466,361.75L809.466,393.733C809.466,408.644 821.572,420.75 836.483,420.75C840.406,420.75 844.135,419.912 847.5,418.405L847.5,420.233C847.5,426.313 842.563,431.25 836.483,431.25C832.068,431.25 828.483,434.835 828.483,439.25C828.483,443.665 832.068,447.25 836.483,447.25C851.394,447.25 863.5,435.144 863.5,420.233L863.5,361.75C863.5,357.335 859.915,353.75 855.5,353.75C851.085,353.75 847.5,357.335 847.5,361.75ZM627.141,417.603C628.603,419.515 630.909,420.75 633.5,420.75C637.915,420.75 641.5,417.165 641.5,412.75L641.5,361.75C641.5,357.335 637.915,353.75 633.5,353.75C629.085,353.75 625.5,357.335 625.5,361.75L625.5,393.733C625.5,399.813 620.563,404.75 614.483,404.75C608.403,404.75 603.466,399.813 603.466,393.733L603.466,361.75C603.466,357.335 599.881,353.75 595.466,353.75C591.051,353.75 587.466,357.335 587.466,361.75L587.466,393.733C587.466,408.644 599.572,420.75 614.483,420.75C619.056,420.75 623.366,419.611 627.141,417.603ZM1095.5,359.877C1091.25,356.068 1085.63,353.75 1079.48,353.75C1075.77,353.75 1072.26,354.593 1069.12,356.096C1067.67,354.647 1065.67,353.75 1063.47,353.75C1059.05,353.75 1055.47,357.335 1055.47,361.75L1055.47,412.75C1055.47,417.165 1059.05,420.75 1063.47,420.75C1067.88,420.75 1071.47,417.165 1071.47,412.75L1071.47,377.767C1071.47,373.342 1075.06,369.75 1079.48,369.75C1083.91,369.75 1087.5,373.342 1087.5,377.767L1087.5,412.75C1087.5,417.165 1091.09,420.75 1095.5,420.75C1099.91,420.75 1103.5,417.165 1103.5,412.75L1103.5,377.767C1103.5,373.342 1107.09,369.75 1111.52,369.75C1115.94,369.75 1119.53,373.342 1119.53,377.767L1119.53,412.75C1119.53,417.165 1123.12,420.75 1127.53,420.75C1131.95,420.75 1135.53,417.165 1135.53,412.75L1135.53,377.767C1135.53,364.512 1124.77,353.75 1111.52,353.75C1105.37,353.75 1099.75,356.068 1095.5,359.877ZM878.466,361.75L878.466,412.75C878.466,417.165 882.051,420.75 886.466,420.75C890.881,420.75 894.466,417.165 894.466,412.75L894.466,387.25C894.466,377.591 902.308,369.75 911.966,369.75C916.381,369.75 919.966,366.165 919.966,361.75C919.966,357.335 916.381,353.75 911.966,353.75C905.347,353.75 899.174,355.674 893.977,358.991C892.852,355.934 889.912,353.75 886.466,353.75C882.051,353.75 878.466,357.335 878.466,361.75ZM761.417,353.75L756.466,353.75C752.051,353.75 748.466,357.335 748.466,361.75C748.466,366.165 752.051,369.75 756.466,369.75L761.417,369.75L761.417,393.733C761.417,408.644 773.523,420.75 788.434,420.75C788.434,420.75 790.619,420.75 790.619,420.75C795.034,420.75 798.619,417.165 798.619,412.75C798.619,408.335 795.034,404.75 790.619,404.75L788.434,404.75C782.354,404.75 777.417,399.813 777.417,393.733L777.417,369.75L792.5,369.75C796.915,369.75 800.5,366.165 800.5,361.75C800.5,357.335 796.915,353.75 792.5,353.75L777.417,353.75L777.417,346.25C777.417,341.835 773.832,338.25 769.417,338.25C765.002,338.25 761.417,341.835 761.417,346.25L761.417,353.75ZM989.466,393.733C989.466,408.644 1001.57,420.75 1016.48,420.75C1031.39,420.75 1043.5,408.644 1043.5,393.733L1043.5,380.767C1043.5,365.856 1031.39,353.75 1016.48,353.75C1001.57,353.75 989.466,365.856 989.466,380.767L989.466,393.733ZM924.466,393.733C924.466,408.644 936.572,420.75 951.483,420.75C966.394,420.75 978.5,408.644 978.5,393.733L978.5,380.767C978.5,365.856 966.394,353.75 951.483,353.75C936.572,353.75 924.466,365.856 924.466,380.767L924.466,393.733ZM738.466,412.75L738.466,361.75C738.466,357.335 734.881,353.75 730.466,353.75C726.051,353.75 722.466,357.335 722.466,361.75L722.466,412.75C722.466,417.165 726.051,420.75 730.466,420.75C734.881,420.75 738.466,417.165 738.466,412.75ZM668.825,356.897C667.363,354.985 665.057,353.75 662.466,353.75C658.051,353.75 654.466,357.335 654.466,361.75L654.466,412.75C654.466,417.165 658.051,420.75 662.466,420.75C666.881,420.75 670.466,417.165 670.466,412.75L670.466,380.767C670.466,374.687 675.403,369.75 681.483,369.75C687.563,369.75 692.5,374.687 692.5,380.767L692.5,412.75C692.5,417.165 696.085,420.75 700.5,420.75C704.915,420.75 708.5,417.165 708.5,412.75L708.5,380.767C708.5,365.856 696.394,353.75 681.483,353.75C676.91,353.75 672.6,354.889 668.825,356.897ZM1005.47,393.733L1005.47,380.767C1005.47,374.687 1010.4,369.75 1016.48,369.75C1022.56,369.75 1027.5,374.687 1027.5,380.767L1027.5,393.733C1027.5,399.813 1022.56,404.75 1016.48,404.75C1010.4,404.75 1005.47,399.813 1005.47,393.733ZM940.466,393.733L940.466,380.767C940.466,374.687 945.403,369.75 951.483,369.75C957.563,369.75 962.5,374.687 962.5,380.767L962.5,393.733C962.5,399.813 957.563,404.75 951.483,404.75C945.403,404.75 940.466,399.813 940.466,393.733ZM730.466,328.25C734.881,328.25 738.466,331.835 738.466,336.25C738.466,340.665 734.881,344.25 730.466,344.25C726.051,344.25 722.466,340.665 722.466,336.25C722.466,331.835 726.051,328.25 730.466,328.25Z" style="fill:rgb(48,60,78);"/>
            </g>
            <g transform="matrix(1.14612,0,0,1.14612,-59.1453,-78.6245)">
                <g transform="matrix(0.87251,0,0,0.87251,-29.9452,116.371)">
                    <path d="M564.867,339.624C564.867,336.31 562.823,333.339 559.728,332.153L520.246,317.029C517.786,316.087 515.021,316.416 512.851,317.909C510.68,319.401 509.384,321.866 509.384,324.5L509.384,450C509.384,452.634 510.68,455.099 512.851,456.591C515.021,458.084 517.786,458.413 520.246,457.471L559.728,442.347C562.823,441.161 564.867,438.19 564.867,434.876L564.867,339.624ZM530.395,379.25C534.81,379.25 538.395,382.835 538.395,387.25C538.395,391.665 534.81,395.25 530.395,395.25C525.979,395.25 522.395,391.665 522.395,387.25C522.395,382.835 525.979,379.25 530.395,379.25Z" style="fill:rgb(46,147,255);"/>
                </g>
                <g transform="matrix(0.798724,0,0,1.0024,74.5112,10.6876)">
                    <path d="M411.739,400C411.739,396.154 407.826,393.037 403,393.037L387,393.037C382.174,393.037 378.261,396.154 378.261,400L378.261,485C378.261,488.846 382.174,491.963 387,491.963L403,491.963C407.826,491.963 411.739,488.846 411.739,485L411.739,400Z" style="fill:rgb(42,104,197);"/>
                </g>
            </g>
        </g>
    </g>
</svg>
